<svg width="70" height="56" viewBox="0 0 70 56" fill="none" xmlns="http://www.w3.org/2000/svg">
<path d="M38.8605 1.83909C36.7667 0.693216 34.2333 0.693216 32.1395 1.83909L2 18.3333L14.1818 24.9944V39.1799C14.1818 41.7375 15.5767 44.0915 17.8201 45.3198L35.5 55L56.8182 43.3278V24.9944L62.9091 21.6639V42.7778H69V18.3333L38.8605 1.83909ZM56.27 18.3333L35.5 29.7L14.73 18.3333L33.5797 8.01758C34.7762 7.36279 36.2238 7.36279 37.4203 8.01758L56.27 18.3333ZM50.7273 39.7222L35.5 48.0333L22.3564 40.8595C21.0719 40.1584 20.2727 38.8118 20.2727 37.3484V28.325L35.5 36.6667L50.7273 28.325V39.7222Z" fill="#2F3EC6" stroke="#2F3EC6"/>
</svg>
